<?xml version="1.0" encoding="UTF-8" standalone="no"?>
<!-- Created with Inkscape (http://www.inkscape.org/) -->

<svg
   xmlns:osb="http://www.openswatchbook.org/uri/2009/osb"
   xmlns:dc="http://purl.org/dc/elements/1.1/"
   xmlns:cc="http://creativecommons.org/ns#"
   xmlns:rdf="http://www.w3.org/1999/02/22-rdf-syntax-ns#"
   xmlns:svg="http://www.w3.org/2000/svg"
   xmlns="http://www.w3.org/2000/svg"
   xmlns:sodipodi="http://sodipodi.sourceforge.net/DTD/sodipodi-0.dtd"
   xmlns:inkscape="http://www.inkscape.org/namespaces/inkscape"
   width="3.5648038in"
   height="4.0335841in"
   id="svg2"
   version="1.1"
   inkscape:version="0.92.2 5c3e80d, 2017-08-06"
   sodipodi:docname="plated-single-geno-like.svg">
  <defs
     id="defs4">
    <linearGradient
       id="linearGradient4861"
       osb:paint="solid">
      <stop
         style="stop-color:#ffff00;stop-opacity:1;"
         offset="0"
         id="stop4863" />
    </linearGradient>
    <linearGradient
       id="linearGradient4855"
       osb:paint="solid">
      <stop
         style="stop-color:#ffff00;stop-opacity:1;"
         offset="0"
         id="stop4857" />
    </linearGradient>
    <marker
       inkscape:stockid="Arrow1Mend"
       orient="auto"
       refY="0"
       refX="0"
       id="Arrow1Mend"
       style="overflow:visible">
      <path
         id="path4050"
         d="M 0,0 5,-5 -12.5,0 5,5 Z"
         style="fill-rule:evenodd;stroke:#000000;stroke-width:1.00000003pt"
         transform="matrix(-0.4,0,0,-0.4,-4,0)"
         inkscape:connector-curvature="0" />
    </marker>
    <clipPath
       id="clipPath5103"
       clipPathUnits="userSpaceOnUse">
      <path
         id="path5105"
         d="m 0.768375,0.5103926 h 50.9916 V 35.498863 h -50.9916 z"
         inkscape:connector-curvature="0" />
    </clipPath>
    <clipPath
       id="clipPath5160"
       clipPathUnits="userSpaceOnUse">
      <path
         id="path5162"
         d="m 0.768375,0.5103926 h 52 V 35.498863 h -52 z"
         inkscape:connector-curvature="0" />
    </clipPath>
    <clipPath
       id="clipPath5217"
       clipPathUnits="userSpaceOnUse">
      <path
         id="path5219"
         d="M 0.553219,1.104393 H 189.55322 v 32.81361 H 0.553219 Z"
         inkscape:connector-curvature="0" />
    </clipPath>
    <clipPath
       id="clipPath1268"
       clipPathUnits="userSpaceOnUse">
      <path
         inkscape:connector-curvature="0"
         id="path1266"
         d="m 0.018,0.918 h 34 v 22 h -34 z" />
    </clipPath>
    <clipPath
       id="clipPath1342"
       clipPathUnits="userSpaceOnUse">
      <path
         inkscape:connector-curvature="0"
         id="path1340"
         d="m 0.54,0.306 h 44 v 28 h -44 z" />
    </clipPath>
    <clipPath
       id="clipPath1414"
       clipPathUnits="userSpaceOnUse">
      <path
         inkscape:connector-curvature="0"
         id="path1412"
         d="M 0.264937,0.666 H 127.26494 v 22 H 0.264937 Z" />
    </clipPath>
    <clipPath
       id="clipPath1886"
       clipPathUnits="userSpaceOnUse">
      <path
         inkscape:connector-curvature="0"
         id="path1884"
         d="M 0,0 H 133 V 22 H 0 Z" />
    </clipPath>
    <clipPath
       id="clipPath1982"
       clipPathUnits="userSpaceOnUse">
      <path
         inkscape:connector-curvature="0"
         id="path1980"
         d="M 0.174937,0.666 H 133.17494 v 22 H 0.174937 Z" />
    </clipPath>
  </defs>
  <sodipodi:namedview
     id="base"
     pagecolor="#ffffff"
     bordercolor="#666666"
     borderopacity="1.0"
     inkscape:pageopacity="0.0"
     inkscape:pageshadow="2"
     inkscape:zoom="0.785956"
     inkscape:cx="165.22147"
     inkscape:cy="301.56063"
     inkscape:document-units="px"
     inkscape:current-layer="layer1"
     showgrid="false"
     showguides="true"
     inkscape:guide-bbox="true"
     inkscape:window-width="1433"
     inkscape:window-height="850"
     inkscape:window-x="0"
     inkscape:window-y="1"
     inkscape:window-maximized="0"
     fit-margin-top="0"
     fit-margin-left="0"
     fit-margin-right="0"
     fit-margin-bottom="0"
     units="in"
     width="9.5in">
    <sodipodi:guide
       orientation="0,1"
       position="-53.506688,263.01743"
       id="guide3773"
       inkscape:locked="false" />
  </sodipodi:namedview>
  <metadata
     id="metadata7">
    <rdf:RDF>
      <cc:Work
         rdf:about="">
        <dc:format>image/svg+xml</dc:format>
        <dc:type
           rdf:resource="http://purl.org/dc/dcmitype/StillImage" />
        <dc:title />
      </cc:Work>
    </rdf:RDF>
  </metadata>
  <g
     inkscape:label="Layer 1"
     inkscape:groupmode="layer"
     id="layer1"
     transform="translate(-216.36382,-112.44125)">
    <path
       style="fill:none;stroke:#000000;stroke-width:1.61000001;stroke-linecap:butt;stroke-linejoin:miter;stroke-miterlimit:4;stroke-dasharray:none;stroke-opacity:1;marker-end:url(#Arrow1Mend)"
       d="m 283.36382,193.13457 37,111"
       id="path5645"
       inkscape:connector-curvature="0" />
    <path
       style="fill:none;stroke:#000000;stroke-width:1.61000001;stroke-linecap:butt;stroke-linejoin:miter;stroke-miterlimit:4;stroke-dasharray:none;stroke-opacity:1;marker-end:url(#Arrow1Mend)"
       d="m 365.36382,192.13457 -34,111"
       id="path5647"
       inkscape:connector-curvature="0" />
    <circle
       style="fill:#ffffff;fill-opacity:1;stroke:#000000;stroke-width:1.54000008;stroke-linecap:butt;stroke-linejoin:miter;stroke-miterlimit:4;stroke-dasharray:none;stroke-opacity:1"
       id="path2985"
       transform="scale(1,-1)"
       cx="282.38025"
       cy="-191.82115"
       r="16" />
    <circle
       style="fill:#ffffff;fill-opacity:1;stroke:#000000;stroke-width:1.54000008;stroke-linecap:butt;stroke-linejoin:miter;stroke-miterlimit:4;stroke-dasharray:none;stroke-opacity:1"
       id="path2985-2"
       transform="scale(1,-1)"
       cx="365.38025"
       cy="-191.82115"
       r="16" />
    <g
       id="g3808"
       transform="matrix(0.875,0,0,-0.875,266.95841,331.53547)" />
    <rect
       style="fill:none;stroke:#000000;stroke-width:1.97080731;stroke-miterlimit:4;stroke-dasharray:none;stroke-opacity:1"
       id="rect5064"
       width="312.25897"
       height="324.69989"
       x="217.34923"
       y="113.42666" />
    <g
       transform="matrix(0.875,0,0,-0.875,228.03116,237.09447)"
       inkscape:label="yi1"
       id="g5095">
      <g
         id="g5097" />
      <g
         id="g5099">
        <g
           clip-path="url(#clipPath5103)"
           id="g5101">
          <path
             id="path5107"
             style="fill:#000000;fill-opacity:1;fill-rule:nonzero;stroke:none"
             d="m 21.69754,31.26509 0.50593,0.50593 c 1.09175,1.0651 2.26333,2.28998 4.71309,2.47635 0.39939,0.02665 0.71895,0.02665 0.71895,0.66571 0,0.29291 -0.18644,0.45269 -0.47935,0.45269 -0.9319,0 -1.97041,-0.13319 -2.92897,-0.13319 -1.19822,0 -2.44976,0.13319 -3.59475,0.13319 -0.21302,0 -0.69229,0 -0.69229,-0.69236 0,-0.39939 0.3728,-0.42604 0.55917,-0.42604 0.23967,0 1.27811,-0.07989 1.27811,-0.82543 0,-0.6124 -0.82542,-1.54437 -0.95855,-1.73081 L 12.48446,22.10525 8.516975,32.75623 c -0.21302,0.50593 -0.21302,0.58582 -0.21302,0.61247 0,0.87867 1.757395,0.87867 2.130195,0.87867 0.50593,0 0.85208,0 0.85208,0.71895 0,0.39945 -0.42604,0.39945 -0.53258,0.39945 -1.011795,0 -3.5148,-0.13319 -4.526647,-0.13319 -0.90533,0 -3.115411,0.13319 -4.020742,0.13319 -0.213019,0 -0.692317,0 -0.692317,-0.71895 0,-0.39945 0.372788,-0.39945 0.825453,-0.39945 2.156823,0 2.316591,-0.3195 2.63612,-1.22481 L 9.395706,21.19993 c 0.026585,-0.10648 0.133129,-0.50593 0.133129,-0.61241 0,-0.10654 -1.4379,-5.88466 -1.597682,-6.52372 -0.479284,-1.97048 -0.505909,-2.07696 -3.381675,-2.13019 -0.692318,0 -0.985221,0 -0.985221,-0.71895 0,-0.39946 0.426039,-0.39946 0.505923,-0.39946 1.011847,0 3.514825,0.10655 4.526686,0.10655 1.01186,0 3.594684,-0.10655 4.606544,-0.10655 0.23967,0 0.66571,0 0.66571,0.71895 0,0.39946 -0.31956,0.39946 -0.98528,0.39946 -0.07982,0 -0.77218,0 -1.38459,0.07982 -0.7456,0.07989 -0.95862,0.1332 -0.95862,0.55924 0,0.26625 0.31956,1.51772 0.50593,2.26332 l 1.25153,5.08582 c 0.18637,0.66571 0.21302,0.77219 0.50593,1.09175 l 8.89352,10.25153"
             inkscape:connector-curvature="0" />
          <path
             id="path5109"
             style="fill:#000000;fill-opacity:1;fill-rule:nonzero;stroke:none"
             d="m 29.17988,21.19993 c 0,0.39939 -0.29291,0.93197 -0.9852,0.93197 -0.6923,0 -1.41125,-0.63906 -1.41125,-1.35801 0,-0.42604 0.3195,-0.95855 1.01179,-0.95855 0.71895,0 1.38466,0.69229 1.38466,1.38459 z M 24.06741,8.445401 C 23.98752,8.125838 23.85439,7.832927 23.85439,7.406888 c 0,-1.171588 0.98521,-2.130177 2.36987,-2.130177 2.50293,0 3.62134,3.461601 3.62134,3.834334 0,0.319564 -0.31957,0.319564 -0.39946,0.319564 -0.34615,0 -0.3728,-0.159782 -0.47928,-0.42604 -0.58582,-1.997075 -1.6775,-3.035547 -2.66278,-3.035547 -0.50586,0 -0.6124,0.319529 -0.6124,0.878704 0,0.585815 0.15978,1.065092 0.39938,1.597675 0.23968,0.692297 0.50594,1.358009 0.79885,2.023649 0.21302,0.58583 1.11833,2.8758 1.22488,3.16871 0.07989,0.26626 0.15978,0.55917 0.15978,0.79878 0,1.19822 -1.01186,2.13019 -2.39652,2.13019 -2.47635,0 -3.62134,-3.40831 -3.62134,-3.83435 0,-0.3195 0.34622,-0.3195 0.42604,-0.3195 0.34622,0 0.3728,0.13313 0.45269,0.39939 0.63906,2.15685 1.73081,3.06217 2.66278,3.06217 0.39939,0 0.63906,-0.21302 0.63906,-0.87873 0,-0.58576 -0.15978,-0.95856 -0.77225,-2.50293 L 24.06741,8.445401"
             inkscape:connector-curvature="0" />
          <path
             id="path5111"
             style="fill:#000000;fill-opacity:1;fill-rule:nonzero;stroke:none"
             d="m 36.55568,5.91577 c 0,-1.358002 -0.23967,-2.982275 -1.94383,-4.579923 -0.10647,-0.10651 -0.18636,-0.159768 -0.18636,-0.292904 0,-0.1863938 0.21302,-0.3461585 0.34614,-0.3461585 0.34615,0 2.47635,1.9970575 2.47635,4.9793335 0,1.544403 -0.58575,2.74263 -1.73074,2.74263 -0.85208,0 -1.4379,-0.665712 -1.4379,-1.437879 0,-0.798828 0.55917,-1.464512 1.4379,-1.464512 0.6124,0 1.01179,0.399413 1.03844,0.399413"
             inkscape:connector-curvature="0" />
          <path
             id="path5113"
             style="fill:#000000;fill-opacity:1;fill-rule:nonzero;stroke:none"
             d="m 48.16529,21.46619 c 0,0.66571 -0.05331,0.69236 -0.7456,0.69236 -1.59762,-1.57103 -3.8876,-1.59768 -4.92611,-1.59768 v -0.90532 c 0.61247,0 2.26339,0 3.64799,0.71895 V 7.566669 c 0,-0.825453 0,-1.144982 -2.503,-1.144982 h -0.95855 v -0.90533 c 0.45262,0.026625 3.54144,0.106509 4.44676,0.106509 0.79884,0 3.94089,-0.079884 4.50006,-0.106509 v 0.90533 h -0.95862 c -2.50293,0 -2.50293,0.319529 -2.50293,1.144982 V 21.46619"
             inkscape:connector-curvature="0" />
        </g>
      </g>
    </g>
    <g
       transform="matrix(0.875,0,0,-0.875,366.02548,180.98446)"
       inkscape:label="yi2"
       id="g5152">
      <g
         id="g5154" />
      <g
         id="g5156">
        <g
           clip-path="url(#clipPath5160)"
           id="g5158">
          <path
             id="path5164"
             style="fill:#000000;fill-opacity:1;fill-rule:nonzero;stroke:none"
             d="m 21.69754,31.26509 0.50593,0.50593 c 1.09175,1.0651 2.26333,2.28998 4.71309,2.47635 0.39939,0.02665 0.71895,0.02665 0.71895,0.66571 0,0.29291 -0.18644,0.45269 -0.47935,0.45269 -0.9319,0 -1.97041,-0.13319 -2.92897,-0.13319 -1.19822,0 -2.44976,0.13319 -3.59475,0.13319 -0.21302,0 -0.69229,0 -0.69229,-0.69236 0,-0.39939 0.3728,-0.42604 0.55917,-0.42604 0.23967,0 1.27811,-0.07989 1.27811,-0.82543 0,-0.6124 -0.82542,-1.54437 -0.95855,-1.73081 L 12.48446,22.10525 8.516975,32.75623 c -0.21302,0.50593 -0.21302,0.58582 -0.21302,0.61247 0,0.87867 1.757395,0.87867 2.130195,0.87867 0.50593,0 0.85208,0 0.85208,0.71895 0,0.39945 -0.42604,0.39945 -0.53258,0.39945 -1.011795,0 -3.5148,-0.13319 -4.526647,-0.13319 -0.90533,0 -3.115411,0.13319 -4.020742,0.13319 -0.213019,0 -0.692317,0 -0.692317,-0.71895 0,-0.39945 0.372788,-0.39945 0.825453,-0.39945 2.156823,0 2.316591,-0.3195 2.63612,-1.22481 L 9.395706,21.19993 c 0.026585,-0.10648 0.133129,-0.50593 0.133129,-0.61241 0,-0.10654 -1.4379,-5.88466 -1.597682,-6.52372 -0.479284,-1.97048 -0.505909,-2.07696 -3.381675,-2.13019 -0.692318,0 -0.985221,0 -0.985221,-0.71895 0,-0.39946 0.426039,-0.39946 0.505923,-0.39946 1.011847,0 3.514825,0.10655 4.526686,0.10655 1.01186,0 3.594684,-0.10655 4.606544,-0.10655 0.23967,0 0.66571,0 0.66571,0.71895 0,0.39946 -0.31956,0.39946 -0.98528,0.39946 -0.07982,0 -0.77218,0 -1.38459,0.07982 -0.7456,0.07989 -0.95862,0.1332 -0.95862,0.55924 0,0.26625 0.31956,1.51772 0.50593,2.26332 l 1.25153,5.08582 c 0.18637,0.66571 0.21302,0.77219 0.50593,1.09175 l 8.89352,10.25153"
             inkscape:connector-curvature="0" />
          <path
             id="path5166"
             style="fill:#000000;fill-opacity:1;fill-rule:nonzero;stroke:none"
             d="m 29.17988,21.19993 c 0,0.39939 -0.29291,0.93197 -0.9852,0.93197 -0.6923,0 -1.41125,-0.63906 -1.41125,-1.35801 0,-0.42604 0.3195,-0.95855 1.01179,-0.95855 0.71895,0 1.38466,0.69229 1.38466,1.38459 z M 24.06741,8.445401 C 23.98752,8.125838 23.85439,7.832927 23.85439,7.406888 c 0,-1.171588 0.98521,-2.130177 2.36987,-2.130177 2.50293,0 3.62134,3.461601 3.62134,3.834334 0,0.319564 -0.31957,0.319564 -0.39946,0.319564 -0.34615,0 -0.3728,-0.159782 -0.47928,-0.42604 -0.58582,-1.997075 -1.6775,-3.035547 -2.66278,-3.035547 -0.50586,0 -0.6124,0.319529 -0.6124,0.878704 0,0.585815 0.15978,1.065092 0.39938,1.597675 0.23968,0.692297 0.50594,1.358009 0.79885,2.023649 0.21302,0.58583 1.11833,2.8758 1.22488,3.16871 0.07989,0.26626 0.15978,0.55917 0.15978,0.79878 0,1.19822 -1.01186,2.13019 -2.39652,2.13019 -2.47635,0 -3.62134,-3.40831 -3.62134,-3.83435 0,-0.3195 0.34622,-0.3195 0.42604,-0.3195 0.34622,0 0.3728,0.13313 0.45269,0.39939 0.63906,2.15685 1.73081,3.06217 2.66278,3.06217 0.39939,0 0.63906,-0.21302 0.63906,-0.87873 0,-0.58576 -0.15978,-0.95856 -0.77225,-2.50293 L 24.06741,8.445401"
             inkscape:connector-curvature="0" />
          <path
             id="path5168"
             style="fill:#000000;fill-opacity:1;fill-rule:nonzero;stroke:none"
             d="m 36.55568,5.91577 c 0,-1.358002 -0.23967,-2.982275 -1.94383,-4.579923 -0.10647,-0.10651 -0.18636,-0.159768 -0.18636,-0.292904 0,-0.1863938 0.21302,-0.3461585 0.34614,-0.3461585 0.34615,0 2.47635,1.9970575 2.47635,4.9793335 0,1.544403 -0.58575,2.74263 -1.73074,2.74263 -0.85208,0 -1.4379,-0.665712 -1.4379,-1.437879 0,-0.798828 0.55917,-1.464512 1.4379,-1.464512 0.6124,0 1.01179,0.399413 1.03844,0.399413"
             inkscape:connector-curvature="0" />
          <path
             id="path5170"
             style="fill:#000000;fill-opacity:1;fill-rule:nonzero;stroke:none"
             d="M 52.42568,10.09625 H 51.5736 C 51.49371,9.537084 51.25404,8.045947 50.93455,7.806342 50.72153,7.64656 48.80435,7.64656 48.43155,7.64656 H 43.825 c 2.63613,2.343217 3.5148,3.03551 5.00593,4.20716 1.86394,1.49113 3.59475,3.03551 3.59475,5.43196 0,3.03552 -2.66278,4.87287 -5.85807,4.87287 -3.11541,0 -5.21895,-2.1835 -5.21895,-4.47341 0,-1.27812 1.0651,-1.41132 1.33136,-1.41132 0.58582,0 1.33135,0.42604 1.33135,1.33143 0,0.45262 -0.18637,1.33135 -1.49114,1.33135 0.77219,1.78405 2.47635,2.31657 3.67458,2.31657 2.50299,0 3.80777,-1.94376 3.80777,-3.96749 0,-2.18343 -1.57103,-3.91424 -2.36987,-4.81956 L 41.58826,6.501571 C 41.34866,6.288551 41.34866,6.2353 41.34866,5.516357 h 10.33142 l 0.7456,4.579893"
             inkscape:connector-curvature="0" />
        </g>
      </g>
    </g>
    <g
       transform="matrix(0.875,0,0,-0.875,357.74915,435.0929)"
       inkscape:label="ie1n"
       id="g5209">
      <g
         id="g5211" />
      <g
         id="g5213">
        <g
           clip-path="url(#clipPath5217)"
           id="g5215">
          <path
             id="path5221"
             style="fill:#000000;fill-opacity:1;fill-rule:nonzero;stroke:none"
             d="m 10.24565,31.1668 c 0,0.71895 -0.505931,1.27811 -1.331425,1.27811 -0.958555,0 -1.917157,-0.93197 -1.917157,-1.89052 0,-0.69237 0.479325,-1.30477 1.357989,-1.30477 0.825493,0 1.890593,0.82542 1.890593,1.91718 z M 7.529631,17.66666 c 0.426039,1.03852 0.426039,1.11834 0.772188,2.07696 0.29291,0.71895 0.479277,1.22488 0.479277,1.91718 0,1.59761 -1.144989,2.92904 -2.955636,2.92904 -3.355064,0 -4.739692,-5.19237 -4.739692,-5.53851 0,-0.34615 0.372788,-0.34615 0.42604,-0.34615 0.372787,0 0.399413,0.07982 0.585807,0.63906 0.985215,3.38166 2.396468,4.44676 3.621335,4.44676 0.292897,0 0.90533,0 0.90533,-1.14499 0,-0.74554 -0.239645,-1.49114 -0.399414,-1.86394 C 5.93197,19.8501 4.334322,15.69625 3.748514,14.15187 3.402359,13.2199 2.923061,12.02168 2.923061,11.27607 c 0,-1.704154 1.224867,-2.955619 2.95565,-2.955619 3.355077,0 4.686429,5.218949 4.686429,5.538509 0,0.34615 -0.31949,0.34615 -0.42604,0.34615 -0.346144,0 -0.346144,-0.10654 -0.53251,-0.63906 C 8.967531,11.30273 7.769235,9.119292 5.93197,9.119292 c -0.585808,0 -0.852079,0.346149 -0.852079,1.171578 0,0.90531 0.213019,1.41124 1.038466,3.59468 l 1.411274,3.78111"
             inkscape:connector-curvature="0" />
          <path
             id="path5223"
             style="fill:#000000;fill-opacity:1;fill-rule:nonzero;stroke:none"
             d="m 47.01816,20.46257 c 0.55917,0 1.22482,0 1.22482,0.71895 0,0.71895 -0.66565,0.71895 -1.17158,0.71895 H 25.55641 c -0.50593,0 -1.19822,0 -1.19822,-0.71895 0,-0.71895 0.69229,-0.71895 1.22488,-0.71895 z m 0.05324,-6.97641 c 0.50593,0 1.17158,0 1.17158,0.71895 0,0.71895 -0.66565,0.71895 -1.22482,0.71895 H 25.58307 c -0.53259,0 -1.22488,0 -1.22488,-0.71895 0,-0.71895 0.69229,-0.71895 1.19822,-0.71895 H 47.0714"
             inkscape:connector-curvature="0" />
          <path
             id="path5225"
             style="fill:#000000;fill-opacity:1;fill-rule:nonzero;stroke:none"
             d="m 70.82313,31.69938 c 0,0.87866 0,0.9319 -0.82549,0.9319 -2.23668,-2.28991 -5.40539,-2.28991 -6.55038,-2.28991 v -1.1184 c 0.71895,0 2.84915,0 4.71309,0.93197 V 11.54233 c 0,-1.27812 -0.10654,-1.704156 -3.35508,-1.704156 H 63.66028 V 8.719838 c 1.25154,0.106543 4.39353,0.106543 5.83156,0.106543 1.43763,0 4.55351,0 5.80436,-0.106543 v 1.118336 h -1.14451 c -3.22222,0 -3.32856,0.399456 -3.32856,1.704156 v 20.15705"
             inkscape:connector-curvature="0" />
          <path
             id="path5227"
             style="fill:#000000;fill-opacity:1;fill-rule:nonzero;stroke:none"
             d="m 85.44139,8.746491 c 0,2.369799 -0.90524,3.781119 -2.2897,3.781119 -1.19837,0 -1.91752,-0.90539 -1.91752,-1.91718 0,-0.958623 0.71915,-1.890592 1.91752,-1.890592 0.42604,0 0.90525,0.133128 1.25153,0.452692 0.10634,0.079891 0.13293,0.133129 0.1861,0.133129 0.02658,0 0.05317,-0.053238 0.05317,-0.559168 0,-2.66276 -1.25154,-4.792957 -2.42264,-5.991198 C 81.8204,2.355886 81.8204,2.302628 81.8204,2.169492 c 0,-0.239645 0.18609,-0.372788 0.34629,-0.372788 0.39945,0 3.2747,2.742631 3.2747,6.949787"
             inkscape:connector-curvature="0" />
          <path
             id="path5229"
             style="fill:#000000;fill-opacity:1;fill-rule:nonzero;stroke:none"
             d="m 101.0453,10.61043 c 0,1.0651 -0.852,1.91718 -1.89089,1.91718 -1.03817,0 -1.91684,-0.85208 -1.91684,-1.91718 0,-1.038514 0.87867,-1.890592 1.91684,-1.890592 1.03889,0 1.89089,0.852078 1.89089,1.890592"
             inkscape:connector-curvature="0" />
          <path
             id="path5231"
             style="fill:#000000;fill-opacity:1;fill-rule:nonzero;stroke:none"
             d="m 116.9417,10.61043 c 0,1.0651 -0.8521,1.91718 -1.8902,1.91718 -1.0389,0 -1.9175,-0.85208 -1.9175,-1.91718 0,-1.038514 0.8786,-1.890592 1.9175,-1.890592 1.0381,0 1.8902,0.852078 1.8902,1.890592"
             inkscape:connector-curvature="0" />
          <path
             id="path5233"
             style="fill:#000000;fill-opacity:1;fill-rule:nonzero;stroke:none"
             d="m 132.8388,10.61043 c 0,1.0651 -0.8521,1.91718 -1.8909,1.91718 -1.0382,0 -1.9169,-0.85208 -1.9169,-1.91718 0,-1.038514 0.8787,-1.890592 1.9169,-1.890592 1.0388,0 1.8909,0.852078 1.8909,1.890592"
             inkscape:connector-curvature="0" />
          <path
             id="path5235"
             style="fill:#000000;fill-opacity:1;fill-rule:nonzero;stroke:none"
             d="m 149.241,8.746491 c 0,2.369799 -0.9053,3.781119 -2.2897,3.781119 -1.1984,0 -1.9176,-0.90539 -1.9176,-1.91718 0,-0.958623 0.7192,-1.890592 1.9176,-1.890592 0.426,0 0.9052,0.133128 1.2515,0.452692 0.1063,0.079891 0.1329,0.133129 0.1861,0.133129 0.0266,0 0.0532,-0.053238 0.0532,-0.559168 0,-2.66276 -1.2516,-4.792957 -2.4234,-5.991198 C 145.62,2.355886 145.62,2.302628 145.62,2.169492 c 0,-0.239645 0.1861,-0.372788 0.3456,-0.372788 0.3994,0 3.2754,2.742631 3.2754,6.949787"
             inkscape:connector-curvature="0" />
          <path
             id="path5237"
             style="fill:#000000;fill-opacity:1;fill-rule:nonzero;stroke:none"
             d="m 185.0017,29.46264 c 0.3729,1.4379 1.0116,2.55623 3.8875,2.66278 0.1595,0 0.6128,0.05324 0.6128,0.71888 0,0.05331 0,0.39945 -0.4799,0.39945 -1.1711,0 -2.4492,-0.10654 -3.621,-0.10654 -1.2249,0 -2.4764,0.10654 -3.6748,0.10654 -0.2127,0 -0.6387,0 -0.6387,-0.71895 0,-0.39938 0.3728,-0.39938 0.6387,-0.39938 2.0504,-0.02665 2.4499,-0.77226 2.4499,-1.57103 0,-0.10654 -0.0798,-0.63906 -0.1063,-0.7456 l -4.0212,-16.00306 -7.9345,18.77231 c -0.2932,0.63906 -0.3197,0.66571 -1.1452,0.66571 h -4.8194 c -0.7191,0 -1.0388,0 -1.0388,-0.71895 0,-0.39938 0.3197,-0.39938 1.0122,-0.39938 0.1595,0 2.4227,0 2.4227,-0.31957 l -4.7928,-19.27824 c -0.3729,-1.4379 -0.985,-2.582892 -3.8875,-2.689436 -0.2134,0 -0.6122,-0.053238 -0.6122,-0.718882 0,-0.266326 0.1861,-0.399454 0.4792,-0.399454 1.1445,0 2.3961,0.106543 3.5679,0.106543 1.2249,0 2.5296,-0.106543 3.7014,-0.106543 0.1861,0 0.6653,0 0.6653,0.718949 0,0.346149 -0.3463,0.399387 -0.7185,0.399387 -2.1036,0.053306 -2.3701,0.852076 -2.3701,1.571026 0,0.26633 0.0266,0.42604 0.1329,0.8255 l 4.7396,18.95875 c 0.1336,-0.21302 0.1336,-0.29291 0.3197,-0.63906 l 8.9468,-21.142256 c 0.24,-0.612406 0.3729,-0.692296 0.6926,-0.692296 0.3995,0 0.3995,0.106543 0.559,0.745603 l 5.0327,19.997199"
             inkscape:connector-curvature="0" />
        </g>
      </g>
    </g>
    <circle
       style="fill:#020202;fill-opacity:1;fill-rule:evenodd;stroke:#060606;stroke-width:1.54000008;stroke-linecap:butt;stroke-linejoin:miter;stroke-miterlimit:4;stroke-dasharray:none;stroke-opacity:0.98260869"
       id="path2985-2-2-4-7"
       transform="scale(1,-1)"
       cx="325.36383"
       cy="-322.13458"
       r="16" />
    <circle
       style="fill:#020202;fill-opacity:1;fill-rule:evenodd;stroke:#060606;stroke-width:1.54000008;stroke-linecap:butt;stroke-linejoin:miter;stroke-miterlimit:4;stroke-dasharray:none;stroke-opacity:0.98260869"
       id="path2985-2-2-4-7-22"
       transform="scale(1,-1)"
       cx="449.58298"
       cy="-296.22861"
       r="16" />
    <path
       inkscape:connector-curvature="0"
       id="path1229"
       d="M 445.62224,297.51113 341.01828,314.6579"
       style="fill:none;stroke:#000000;stroke-width:1.61000001;stroke-linecap:butt;stroke-linejoin:miter;stroke-miterlimit:4;stroke-dasharray:none;stroke-opacity:1;marker-end:url(#Arrow1Mend)"
       inkscape:transform-center-x="11.565514"
       inkscape:transform-center-y="-12.952396" />
    <g
       transform="matrix(1.3333333,0,0,-1.3333333,443.59824,286.73513)"
       inkscape:label="latexit"
       id="g1258">
      <g
         id="g1260" />
      <g
         id="g1262">
        <g
           clip-path="url(#clipPath1268)"
           id="g1264">
          <path
             inkscape:connector-curvature="0"
             id="path1270"
             style="fill:#000000;fill-opacity:1;fill-rule:nonzero;stroke:none"
             d="m 7.05238,16.3383 c 0.44687,0 0.95,0 0.95,0.475 0,0.3922 -0.33438,0.3922 -0.81094,0.3922 H 2.66175 c 0.67031,2.3766 2.2375,4 4.78125,4 h 0.86719 c 0.47656,0 0.92344,0 0.92344,0.475 0,0.3906 -0.36407,0.3906 -0.83907,0.3906 H 7.41644 c -3.63594,0 -7.3843775,-2.7953 -7.3843775,-7.075 0,-3.0765 2.0984375,-5.28591 5.0624975,-5.28591 1.81719,0 3.63594,1.11875 3.63594,1.42661 0,0.0843 -0.02812,0.3921 -0.27969,0.3921 -0.05625,0 -0.1125,0 -0.36406,-0.1687 -0.86719,-0.55939 -1.90156,-1.03439 -2.93594,-1.03439 -1.62187,0 -3.02031,1.17499 -3.02031,3.63599 0,0.9781 0.22344,2.0406 0.30781,2.3765 h 4.61407" />
          <path
             inkscape:connector-curvature="0"
             id="path1272"
             style="fill:#000000;fill-opacity:1;fill-rule:nonzero;stroke:none"
             d="m 16.3555,18.0446 c 0,0.3125 -0.2344,0.7422 -0.7812,0.7422 -0.5282,0 -1.0969,-0.5079 -1.0969,-1.075 0,-0.3329 0.2547,-0.7438 0.7828,-0.7438 0.5672,0 1.0953,0.5484 1.0953,1.0766 z M 12.3649,8.10706 C 12.2868,7.85238 12.1899,7.618 12.1899,7.28519 c 0,-0.91875 0.7812,-1.6625 1.8578,-1.6625 1.9562,0 2.8172,2.7 2.8172,2.99219 0,0.25468 -0.2547,0.25468 -0.3125,0.25468 -0.275,0 -0.2938,-0.11718 -0.3719,-0.33281 -0.45,-1.56406 -1.3109,-2.36719 -2.0734,-2.36719 -0.3922,0 -0.4891,0.25469 -0.4891,0.68594 0,0.44844 0.1359,0.82031 0.3125,1.25156 0.1953,0.52813 0.4109,1.05625 0.6266,1.56407 0.175,0.47031 0.8797,2.24997 0.9578,2.48437 0.0594,0.1969 0.1172,0.4313 0.1172,0.6266 0,0.9187 -0.7828,1.6625 -1.8578,1.6625 -1.9375,0 -2.8375,-2.661 -2.8375,-2.9922 0,-0.2547 0.275,-0.2547 0.3328,-0.2547 0.275,0 0.2937,0.0969 0.3531,0.3125 0.5078,1.6828 1.3687,2.3875 2.0922,2.3875 0.314,0 0.489,-0.1578 0.489,-0.6859 0,-0.45 -0.1171,-0.7422 -0.6062,-1.9563 L 12.3649,8.10706" />
          <path
             inkscape:connector-curvature="0"
             id="path1274"
             style="fill:#000000;fill-opacity:1;fill-rule:nonzero;stroke:none"
             d="m 22.0461,6.1305 c 0,-1.075 -0.1968,-2.32812 -1.5265,-3.57969 -0.0782,-0.07812 -0.1375,-0.13593 -0.1375,-0.23437 0,-0.1375 0.1578,-0.27344 0.275,-0.27344 0.2734,0 1.9359,1.56406 1.9359,3.89219 0,1.2125 -0.4687,2.13281 -1.3687,2.13281 -0.6454,0 -1.1157,-0.50937 -1.1157,-1.11562 0,-0.625 0.45,-1.13438 1.1344,-1.13438 0.4703,0 0.7828,0.3125 0.8031,0.3125" />
          <path
             inkscape:connector-curvature="0"
             id="path1276"
             style="fill:#000000;fill-opacity:1;fill-rule:nonzero;stroke:none"
             d="m 33.1055,18.0446 c 0,0.3328 -0.2547,0.7422 -0.7828,0.7422 -0.5672,0 -1.0953,-0.5469 -1.0953,-1.075 0,-0.3125 0.2344,-0.7438 0.7828,-0.7438 0.5281,0 1.0953,0.5094 1.0953,1.0766 z M 28.9586,4.86019 c -0.3328,-1.35 -1.3687,-2.48438 -2.5234,-2.48438 -0.2547,0 -0.4891,0.03907 -0.7047,0.11719 0.5094,0.23438 0.6656,0.70313 0.6656,0.99688 0,0.47031 -0.3718,0.72343 -0.7625,0.72343 -0.6062,0 -1.1156,-0.52812 -1.1156,-1.15312 0,-0.74375 0.7625,-1.232815 1.9359,-1.232815 1.175,0 3.4625,0.704685 4.0688,3.090625 l 1.7609,7.0031 c 0.0594,0.2157 0.0985,0.3907 0.0985,0.6844 0,1.0766 -0.9203,1.8391 -2.0938,1.8391 -2.1703,0 -3.4234,-2.7188 -3.4234,-2.9922 0,-0.2547 0.275,-0.2547 0.3328,-0.2547 0.2344,0 0.2547,0.0578 0.3922,0.3516 0.489,1.1343 1.5062,2.3484 2.6406,2.3484 0.4891,0 0.6641,-0.3328 0.6641,-0.9594 0,-0.2156 -0.0391,-0.489 -0.0578,-0.5859 L 28.9586,4.86019" />
          <g
             transform="matrix(0.1,0,0,0.1,0.018,0.918)"
             id="g1278">
            <path
               inkscape:connector-curvature="0"
               id="path1280"
               style="fill:none;stroke:#000000;stroke-width:0.00001;stroke-linecap:butt;stroke-linejoin:miter;stroke-miterlimit:10;stroke-dasharray:none;stroke-opacity:0"
               d="m 170,110 v 0 0 0 0 0 0 0 0 0 0 0 0 0 0 0 0 0 0 0 0 0 0 0 0 0 0 0 0 0 0 0 0 0 0 0 0 0 0 0 0 0 0 0 0 0 0 0 0 0 0 0 0 0 0 0 0 0 0 0 0 0 0 z" />
          </g>
        </g>
      </g>
      <g
         id="g1282">
        <g
           transform="matrix(1e-6,0,0,1e-6,17,11)"
           id="g1284">
          <path
             inkscape:connector-curvature="0"
             id="path1286"
             style="fill:none;stroke:#000000;stroke-width:1;stroke-linecap:butt;stroke-linejoin:miter;stroke-miterlimit:10;stroke-dasharray:none;stroke-opacity:0"
             d="m 0,0 c 60,108 97,116 101,120 4,-4 -69,-5 3,-23 -55,-2 -6,0 11,4 C 54,52 61,34 99,108 87,57 98,66 97,111 48,89 47,88 50,50 84,86 122,103 103,105 77,84 78,76 69,71 89,61 34,62 65,65 65,66 57,88 105,99 98,86 68,76 83,103 78,66 69,79 122,49 71,101 77,114 54,116 72,76 89,104 65,56 c 18,22 40,30 38,9 8,36 -38,43 -51,-9 30,50 13,24 31,22 6,41 -4,-35 25,0 12,37 14,1 -32,-10 3,54 7,40 30,53 C 72,49 52,56 75,79 c 1,7 27,-32 -3,30 -21,13 32,-56 0,-41 11,52 39,7 -1,43 -17,2 26,-56 4,-63 44,4 -27,8 23,74 20,-10 -48,-14 -45,-32 35,-4 63,12 35,9 -6,11 -35,23 9,-48 19,59 19,4 -30,0 21,6 32,70 19,31 -4,32 0,-10 -11,30 34,-7 -3,-30 46,-38 -11,-9 -12,35 -50,-3 18,51 7,11 12,8 -8,2 6,42 -6,20 11,-26 -30,-42 43,6 -43,8 2,-8 -37,-53 -6,4 -6,17 20,1 3,-5 -37,20 12,36 C 74,99 90,75 57,50 49,77 78,79 78,83 100,68 74,50 43,106 c 25,7 27,-33 69,-5 9,-11 6,-36 -24,-18 -4,-40 18,-17 -6,21 22,5 31,6 -26,-26 32,39 27,34 58,-7 -39,-6 8,37 -32,8 35,8 -27,42 3,30 36,-36 18,12 21,-37 -33,27 -53,28 11,40 3,-1 -33,-31 -52,-11 43,3 56,-52 9,-35 15,50 8,0 4,48 30,-60 -25,-48 -25,-16 59,3 63,-27 32,18 22,-33 35,-4 -35,-5 68,10 49,10 19,-2 46,-52 37,-40 11,-11 -9,-16 0,-14 -31,-51 31,54 38,33 73,33 -25,-26 -37,29 -5,23 -14,18 -43,9 -41,-18 35,-10 -8,-1 6,1 -10,-11 6,-3 -2,14 19,-19 2,17 28,21 1,-14 -4,-18 -52,-5 17,-30 25,4 45,-62 15,22 -58,-6 -20,28 16,27 39,-1 20,0 16,-15 -21,-35 -54,39 26,-8 62,-19 61,-19 12,19 -54,0 -33,-52 13,25 45,49 47,51 -46,-28 -3,-18 -53,-2 50,-18 41,-47 30,-34 -47,21 18,8 -30,48 -20,-40 -2,-46 34,-4 -3,-57 1,-25 -1,1 19,-22 6,10 -51,2 C 50,80 97,101 117,83 77,53 115,53 103,68 57,119 80,110 56,65 c -8,16 53,18 61,0 -56,-4 -57,-18 -9,32 8,4 12,8 8,-35 z" />
        </g>
      </g>
    </g>
    <rect
       y="246.40257"
       x="233.789"
       height="252.37793"
       width="323.91116"
       id="rect1303"
       style="fill:none;stroke:#000000;stroke-width:1.76963735;stroke-miterlimit:4;stroke-dasharray:none;stroke-opacity:1" />
    <g
       transform="matrix(1.2152853,0,0,-1.2152853,267.51442,367.5952)"
       inkscape:label="latexit"
       id="g1332">
      <g
         id="g1334" />
      <g
         id="g1336">
        <g
           clip-path="url(#clipPath1342)"
           id="g1338">
          <path
             inkscape:connector-curvature="0"
             id="path1344"
             style="fill:#000000;fill-opacity:1;fill-rule:nonzero;stroke:none"
             d="M 4.415,10.9873 C 4.13531,9.89663 4.07906,9.67319 1.86969,9.67319 1.394688,9.67319 1.115,9.67319 1.115,9.11381 1.115,8.806 1.366563,8.806 1.86969,8.806 h 9.98441 c 4.4187,0 7.7187,3.3 7.7187,6.0406 0,2.0141 -1.6219,3.636 -4.3344,3.9438 2.9079,0.5312 5.8454,2.6015 5.8454,5.2578 0,2.0687 -1.8469,3.8594 -5.2032,3.8594 H 6.48375 c -0.53125,0 -0.81094,0 -0.81094,-0.5594 0,-0.3078 0.25157,-0.3078 0.78282,-0.3078 0.05625,0 0.5875,0 1.06406,-0.0563 0.50312,-0.0547 0.75469,-0.0828 0.75469,-0.4468 0,-0.1125 -0.02813,-0.1954 -0.1125,-0.5313 z m 4.22344,8.0546 1.73281,6.936 c 0.25155,0.9781 0.30785,1.0625 1.51095,1.0625 H 15.49 c 2.4609,0 3.0484,-1.65 3.0484,-2.8797 0,-2.4625 -2.4046,-5.1188 -5.8171,-5.1188 z M 7.37906,9.67319 c -0.39062,0 -0.44687,0 -0.61562,0.02812 -0.27969,0.02813 -0.3625,0.05625 -0.3625,0.27969 0,0.08281 0,0.13906 0.13906,0.6422 l 1.92969,7.8031 h 5.28591 c 2.6844,0 3.2172,-2.0687 3.2172,-3.2719 0,-2.7687 -2.4906,-5.48121 -5.7906,-5.48121 H 7.37906" />
          <path
             inkscape:connector-curvature="0"
             id="path1346"
             style="fill:#000000;fill-opacity:1;fill-rule:nonzero;stroke:none"
             d="m 27.3775,16.8326 c 0,0.3125 -0.2344,0.7422 -0.7812,0.7422 -0.5282,0 -1.0969,-0.5079 -1.0969,-1.075 0,-0.3329 0.2547,-0.7438 0.7828,-0.7438 0.5672,0 1.0953,0.5484 1.0953,1.0766 z M 23.3869,6.89506 C 23.3088,6.64038 23.2119,6.406 23.2119,6.07319 c 0,-0.91875 0.7812,-1.6625 1.8578,-1.6625 1.9562,0 2.8172,2.7 2.8172,2.99219 0,0.25468 -0.2547,0.25468 -0.3125,0.25468 -0.275,0 -0.2938,-0.11718 -0.3719,-0.33281 -0.45,-1.56406 -1.3109,-2.36719 -2.0734,-2.36719 -0.3922,0 -0.4891,0.25469 -0.4891,0.68594 0,0.44844 0.1359,0.82031 0.3125,1.25156 0.1953,0.52813 0.4109,1.05625 0.6266,1.56407 0.175,0.47031 0.8797,2.24997 0.9578,2.48437 0.0594,0.1969 0.1172,0.4313 0.1172,0.6266 0,0.9187 -0.7828,1.6625 -1.8578,1.6625 -1.9375,0 -2.8375,-2.661 -2.8375,-2.99222 0,-0.25469 0.275,-0.25469 0.3328,-0.25469 0.275,0 0.2937,0.09687 0.3531,0.3125 0.5078,1.68281 1.3687,2.38751 2.0922,2.38751 0.314,0 0.489,-0.1578 0.489,-0.6859 0,-0.45 -0.1171,-0.7422 -0.6062,-1.9563 L 23.3869,6.89506" />
          <path
             inkscape:connector-curvature="0"
             id="path1348"
             style="fill:#000000;fill-opacity:1;fill-rule:nonzero;stroke:none"
             d="m 33.0681,4.9185 c 0,-1.075 -0.1968,-2.32812 -1.5265,-3.57969 -0.0782,-0.078122 -0.1375,-0.135935 -0.1375,-0.234372 0,-0.1375 0.1578,-0.273438 0.275,-0.273438 0.2734,0 1.9359,1.56406 1.9359,3.89219 0,1.2125 -0.4687,2.13281 -1.3687,2.13281 -0.6454,0 -1.1157,-0.50937 -1.1157,-1.11562 0,-0.625 0.45,-1.13438 1.1344,-1.13438 0.4703,0 0.7828,0.3125 0.8031,0.3125" />
          <path
             inkscape:connector-curvature="0"
             id="path1350"
             style="fill:#000000;fill-opacity:1;fill-rule:nonzero;stroke:none"
             d="m 44.2275,16.8326 c 0,0.3328 -0.2547,0.7422 -0.7828,0.7422 -0.5672,0 -1.0953,-0.5469 -1.0953,-1.075 0,-0.3125 0.2344,-0.7438 0.7828,-0.7438 0.5281,0 1.0953,0.5094 1.0953,1.0766 z M 40.0806,3.64819 c -0.3328,-1.35 -1.3687,-2.484377 -2.5234,-2.484377 -0.2547,0 -0.4891,0.039062 -0.7047,0.117187 0.5094,0.23438 0.6656,0.70313 0.6656,0.99688 0,0.47031 -0.3718,0.72343 -0.7625,0.72343 -0.6062,0 -1.1156,-0.52812 -1.1156,-1.15312 0,-0.743752 0.7625,-1.232815 1.9359,-1.232815 1.175,0 3.4625,0.704685 4.0688,3.090625 l 1.7609,7.0031 c 0.0594,0.2157 0.0985,0.3907 0.0985,0.6844 0,1.0766 -0.9203,1.8391 -2.0938,1.8391 -2.1703,0 -3.4234,-2.7188 -3.4234,-2.99222 0,-0.25469 0.275,-0.25469 0.3328,-0.25469 0.2344,0 0.2547,0.05781 0.3922,0.35161 0.489,1.1343 1.5062,2.3484 2.6406,2.3484 0.4891,0 0.6641,-0.3328 0.6641,-0.9594 0,-0.2156 -0.0391,-0.489 -0.0578,-0.5859 L 40.0806,3.64819" />
          <g
             transform="matrix(0.1,0,0,0.1,0.54,0.306)"
             id="g1352">
            <path
               inkscape:connector-curvature="0"
               id="path1354"
               style="fill:none;stroke:#000000;stroke-width:0.00001;stroke-linecap:butt;stroke-linejoin:miter;stroke-miterlimit:10;stroke-dasharray:none;stroke-opacity:0"
               d="m 220,140 v 0 0 0 0 0 0 0 0 0 0 0 0 0 0 0 0 0 0 0 0 0 0 0 0 0 0 0 0 0 0 0 0 0 0 0 0 0 0 0 0 0 0 0 0 0 0 0 0 0 0 0 0 0 0 0 0 0 0 0 0 0 0 0 0 0 0 0 0 0 0 0 0 0 0 0 z" />
          </g>
        </g>
      </g>
      <g
         id="g1356">
        <g
           transform="matrix(1e-6,0,0,1e-6,22,14)"
           id="g1358">
          <path
             inkscape:connector-curvature="0"
             id="path1360"
             style="fill:none;stroke:#000000;stroke-width:1;stroke-linecap:butt;stroke-linejoin:miter;stroke-miterlimit:10;stroke-dasharray:none;stroke-opacity:0"
             d="m 0,0 c 60,108 97,116 101,120 4,-4 -69,-5 3,-23 -55,-2 -6,0 11,4 C 54,52 61,34 69,48 c 52,9 50,41 -16,34 61,30 65,-13 20,29 5,-40 26,-6 -20,-41 66,49 23,32 27,-19 C 48,61 34,62 65,65 65,66 55,110 105,99 98,86 68,76 83,103 78,66 69,79 121,78 c -7,42 -17,24 -36,11 -28,12 -19,22 -5,14 1,-4 -5,14 -14,-33 18,49 3,10 18,35 -7,-16 -10,-52 -3,-39 -5,1 -26,9 0,-15 -10,33 -4,4 36,5 5,21 -50,53 -45,18 10,-23 34,46 39,-1 -7,15 7,-17 -10,25 1,-55 -24,9 -51,-9 27,20 20,17 31,-4 5,15 -32,-37 19,-38 9,73 -48,31 13,5 -58,62 -12,32 -26,-3 21,51 0,8 -40,24 51,47 50,-23 69,37 -16,-60 -59,-58 -2,-55 -48,64 -66,45 -40,34 38,15 36,-4 11,16 0,0 -35,-3 12,-1 -15,-5 -8,12 -48,15 24,-64 16,-33 26,-65 8,50 1,1 -7,58 38,-62 -14,-2 34,6 -25,-44 6,-17 -5,-36 5,-14 -29,24 -26,-6 44,28 1,9 32,25 -4,-32 -6,-23 5,-11 3,-39 10,0 -25,12 C 80,85 53,54 120,90 74,98 100,109 99,103 121,56 84,76 83,65 107,121 49,72 114,70 114,48 52,47 89,107 109,73 48,106 66,66 116,87 53,55 98,109 121,54 75,86 87,71 77,52 71,84 81,105 102,82 71,70 77,50 c 34,53 1,65 10,71 25,-9 18,-45 26,-23 9,17 -59,2 -6,-32 -28,48 -50,3 0,15 -32,5 11,2 0,-7 3,-20 -6,47 -32,34 36,-8 23,-2 -27,-32 53,24 25,8 38,-8 32,33 18,10 34,34 -77,-46 -20,7 -45,-35 46,-17 -20,8 15,23 29,-1 18,-19 31,-47 -46,26 -18,26 -44,39 -6,8 -30,25 -22,-28 33,13 14,68 34,55 30,-35 1,-20 25,-11 -27,21 -7,0 -29,9 2,-17 30,-26 22,-21 -9,-21 -1,15 -55,29 66,-39 60,-43 18,-14 -13,4 44,7 43,-54 3,28 0,41 0,53 7,-10 -42,-28 -40,22 32,-51 12,-75 -5,-19 -3,10 44,16 -2,19 21,-11 -1,-70 11,-40 3,-5 0,32 41,-14 -9,52 -62,-25 -43,-12 4,64 -28,66 -26,56 72,-28 73,-30 73,-45 -50,55 -17,35 -42,52 8,-20 26,-70 -28,-58 8,-14 56,36 64,40 4,4 0,-39 -116,-101 z" />
        </g>
      </g>
    </g>
    <g
       transform="matrix(1.3333333,0,0,-1.3333333,369.29563,493.42095)"
       inkscape:label="Untitled"
       id="g1972">
      <g
         id="g1974" />
      <g
         id="g1976">
        <g
           clip-path="url(#clipPath1982)"
           id="g1978">
          <path
             inkscape:connector-curvature="0"
             id="path1984"
             style="fill:#000000;fill-opacity:1;fill-rule:nonzero;stroke:none"
             d="m 10.139,21.166 c 0,0.4531 -0.332813,0.8594 -0.904683,0.8594 -0.54844,0 -1.26407,-0.5485 -1.26407,-1.2641 0,-0.4765 0.33438,-0.8578 0.88282,-0.8578 0.64375,0 1.285933,0.6188 1.285933,1.2625 z M 5.348377,5.07381 C 4.895247,3.26131 3.749937,1.9035 2.415567,1.9035 c -0.14375,0 -0.50157,0 -0.92969,0.21406 0.71562,0.16719 1.07187,0.7875 1.07187,1.26407 0,0.38125 -0.26093,0.83437 -0.90468,0.83437 -0.59688,0 -1.287505,-0.50156 -1.287505,-1.35937 0,-0.95313 0.953125,-1.47813 2.096875,-1.47813 1.66875,0 3.88594,1.26406 4.48281,3.62344 l 2.19375,8.72656 c 0.11875,0.4766 0.11875,0.8109 0.11875,0.8813 0,1.3593 -1.00156,2.1937 -2.19375,2.1937 -2.43125,0 -3.79062,-3.4562 -3.79062,-3.6719 0,-0.2375 0.23906,-0.2375 0.28594,-0.2375 0.21562,0 0.23906,0.0235 0.42968,0.4766 0.59532,1.4547 1.69219,2.9078 3.00313,2.9078 0.33437,0 0.76406,-0.0953 0.76406,-1.0953 0,-0.5484 -0.07187,-0.8109 -0.16719,-1.2172 L 5.348377,5.07381" />
          <path
             inkscape:connector-curvature="0"
             id="path1986"
             style="fill:#000000;fill-opacity:1;fill-rule:nonzero;stroke:none"
             d="m 34.95304,14.0613 c 0.3578,0 0.811,0 0.811,0.4781 0,0.4766 -0.4532,0.4766 -0.786,0.4766 h -14.2812 c -0.3344,0 -0.7875,0 -0.7875,-0.4766 0,-0.4781 0.4531,-0.4781 0.8109,-0.4781 z m 0.025,-4.62499 c 0.3328,0 0.786,0 0.786,0.47813 0,0.47656 -0.4532,0.47656 -0.811,0.47656 h -14.2328 c -0.3578,0 -0.8109,0 -0.8109,-0.47656 0,-0.47813 0.4531,-0.47813 0.7875,-0.47813 h 14.2812" />
          <path
             inkscape:connector-curvature="0"
             id="path1988"
             style="fill:#000000;fill-opacity:1;fill-rule:nonzero;stroke:none"
             d="m 50.78434,21.5238 c 0,0.5719 0,0.6203 -0.5485,0.6203 -1.4781,-1.5265 -3.5765,-1.5265 -4.339,-1.5265 v -0.7391 c 0.4765,0 1.8828,0 3.1234,0.6203 V 8.14881 c 0,-0.85781 -0.0719,-1.14375 -2.2172,-1.14375 h -0.7625 V 6.266 c 0.8344,0.07188 2.9078,0.07188 3.861,0.07188 0.9547,0 3.0281,0 3.8625,-0.07188 v 0.73906 h -0.7625 c -2.1453,0 -2.2172,0.2625 -2.2172,1.14375 V 21.5238" />
          <path
             inkscape:connector-curvature="0"
             id="path1990"
             style="fill:#000000;fill-opacity:1;fill-rule:nonzero;stroke:none"
             d="m 60.51404,6.28944 c 0,1.57344 -0.5953,2.50312 -1.525,2.50312 -0.7875,0 -1.2641,-0.59531 -1.2641,-1.2625 0,-0.64375 0.4766,-1.26406 1.2641,-1.26406 0.2859,0 0.5953,0.09531 0.8343,0.30938 0.0719,0.04843 0.0954,0.07187 0.1188,0.07187 0.0234,0 0.0484,-0.02344 0.0484,-0.35781 0,-1.76406 -0.8343,-3.19375 -1.6218,-3.98125 -0.2625,-0.2625 -0.2625,-0.30938 -0.2625,-0.38125 0,-0.16719 0.1203,-0.262502 0.239,-0.262502 0.2625,0 2.1688,1.835942 2.1688,4.625002" />
          <path
             inkscape:connector-curvature="0"
             id="path1992"
             style="fill:#000000;fill-opacity:1;fill-rule:nonzero;stroke:none"
             d="m 70.95304,7.53006 c 0,0.69063 -0.5734,1.2625 -1.264,1.2625 -0.6922,0 -1.2641,-0.57187 -1.2641,-1.2625 0,-0.69218 0.5719,-1.26406 1.2641,-1.26406 0.6906,0 1.264,0.57188 1.264,1.26406" />
          <path
             inkscape:connector-curvature="0"
             id="path1994"
             style="fill:#000000;fill-opacity:1;fill-rule:nonzero;stroke:none"
             d="m 81.55304,7.53006 c 0,0.69063 -0.5734,1.2625 -1.264,1.2625 -0.6922,0 -1.2641,-0.57187 -1.2641,-1.2625 0,-0.69218 0.5719,-1.26406 1.2641,-1.26406 0.6906,0 1.264,0.57188 1.264,1.26406" />
          <path
             inkscape:connector-curvature="0"
             id="path1996"
             style="fill:#000000;fill-opacity:1;fill-rule:nonzero;stroke:none"
             d="m 92.15304,7.53006 c 0,0.69063 -0.5734,1.2625 -1.264,1.2625 -0.6922,0 -1.2641,-0.57187 -1.2641,-1.2625 0,-0.69218 0.5719,-1.26406 1.2641,-1.26406 0.6906,0 1.264,0.57188 1.264,1.26406" />
          <path
             inkscape:connector-curvature="0"
             id="path1998"
             style="fill:#000000;fill-opacity:1;fill-rule:nonzero;stroke:none"
             d="m 103.1139,6.28944 c 0,1.57344 -0.595,2.50312 -1.525,2.50312 -0.787,0 -1.264,-0.59531 -1.264,-1.2625 0,-0.64375 0.477,-1.26406 1.264,-1.26406 0.286,0 0.595,0.09531 0.834,0.30938 0.072,0.04843 0.096,0.07187 0.119,0.07187 0.024,0 0.049,-0.02344 0.049,-0.35781 0,-1.76406 -0.835,-3.19375 -1.622,-3.98125 -0.263,-0.2625 -0.263,-0.30938 -0.263,-0.38125 0,-0.16719 0.121,-0.262502 0.239,-0.262502 0.263,0 2.169,1.835942 2.169,4.625002" />
          <path
             inkscape:connector-curvature="0"
             id="path2000"
             style="fill:#000000;fill-opacity:1;fill-rule:nonzero;stroke:none"
             d="m 117.8159,20.9051 c 0.142,0.5718 0.214,0.8093 0.667,0.8812 0.214,0.0235 0.978,0.0235 1.455,0.0235 1.692,0 4.339,0 4.339,-2.3594 0,-0.811 -0.382,-2.4563 -1.311,-3.386 -0.621,-0.6203 -1.885,-1.3828 -4.03,-1.3828 h -2.67 z m 3.432,-6.5328 c 2.408,0.5234 5.246,2.1937 5.246,4.6015 0,2.05 -2.146,3.575 -5.269,3.575 h -6.795 c -0.477,0 -0.691,0 -0.691,-0.4765 0,-0.2625 0.214,-0.2625 0.667,-0.2625 0.047,0 0.5,0 0.907,-0.0469 0.428,-0.0485 0.643,-0.0719 0.643,-0.3813 0,-0.0953 -0.025,-0.1672 -0.095,-0.4531 l -3.195,-12.80312 c -0.239,-0.92969 -0.286,-1.12032 -2.169,-1.12032 -0.43,0 -0.644,0 -0.644,-0.47656 0,-0.2625 0.286,-0.2625 0.333,-0.2625 0.667,0 2.337,0.07188 3.005,0.07188 0.667,0 2.359,-0.07188 3.028,-0.07188 0.19,0 0.476,0 0.476,0.47656 0,0.2625 -0.215,0.2625 -0.668,0.2625 -0.882,0 -1.549,0 -1.549,0.42969 0,0.14219 0.047,0.26094 0.07,0.40469 l 1.574,6.31716 h 2.837 c 2.171,0 2.599,-1.3343 2.599,-2.1687 0,-0.3578 -0.191,-1.0969 -0.333,-1.64534 -0.167,-0.66718 -0.381,-1.55 -0.381,-2.02656 0,-2.575 2.861,-2.575 3.17,-2.575 2.027,0 2.861,2.40781 2.861,2.74219 0,0.28594 -0.262,0.28594 -0.286,0.28594 -0.214,0 -0.262,-0.16719 -0.311,-0.33438 -0.595,-1.76406 -1.62,-2.16875 -2.169,-2.16875 -0.787,0 -0.953,0.525 -0.953,1.45469 0,0.73906 0.142,1.95469 0.238,2.71719 0.048,0.33442 0.095,0.78752 0.095,1.12032 0,1.8359 -1.597,2.575 -2.241,2.8141" />
          <path
             inkscape:connector-curvature="0"
             id="path2002"
             style="fill:#000000;fill-opacity:1;fill-rule:nonzero;stroke:none"
             d="m 132.4219,13.1723 c 0,0.2703 -0.202,0.639 -0.672,0.639 -0.455,0 -0.942,-0.4375 -0.942,-0.925 0,-0.2844 0.219,-0.6375 0.672,-0.6375 0.487,0 0.942,0.4703 0.942,0.9235 z m -3.43,-8.53911 c -0.067,-0.21875 -0.151,-0.42031 -0.151,-0.70625 0,-0.79063 0.673,-1.42969 1.597,-1.42969 1.681,0 2.421,2.32031 2.421,2.57344 0,0.21719 -0.218,0.21719 -0.27,0.21719 -0.234,0 -0.251,-0.1 -0.319,-0.28594 -0.386,-1.34375 -1.126,-2.03281 -1.781,-2.03281 -0.337,0 -0.42,0.21875 -0.42,0.5875 0,0.3875 0.117,0.70625 0.269,1.07656 0.167,0.45312 0.353,0.90781 0.537,1.34531 0.152,0.40313 0.756,1.93281 0.823,2.13438 0.052,0.16718 0.102,0.37031 0.102,0.5375 0,0.79062 -0.673,1.42968 -1.597,1.42968 -1.664,0 -2.437,-2.2875 -2.437,-2.57187 0,-0.21875 0.234,-0.21875 0.286,-0.21875 0.234,0 0.251,0.08437 0.301,0.26875 0.438,1.44531 1.177,2.05 1.799,2.05 0.27,0 0.42,-0.13438 0.42,-0.5875 0,-0.3875 -0.1,-0.63906 -0.52,-1.68125 l -1.06,-2.70625" />
          <g
             transform="matrix(0.1,0,0,0.1,0.174937,0.666)"
             id="g2004">
            <path
               inkscape:connector-curvature="0"
               id="path2006"
               style="fill:none;stroke:#000000;stroke-width:0.00001;stroke-linecap:butt;stroke-linejoin:miter;stroke-miterlimit:10;stroke-dasharray:none;stroke-opacity:0"
               d="m 665,110 v 0 0 0 0 0 0 0 0 0 0 0 0 0 0 0 0 0 0 0 0 0 0 0 0 0 0 0 0 0 0 0 0 0 0 0 0 0 0 0 0 0 0 0 0 0 z" />
          </g>
        </g>
      </g>
      <g
         id="g2008">
        <g
           transform="matrix(1e-6,0,0,1e-6,66.5,11)"
           id="g2010">
          <path
             inkscape:connector-curvature="0"
             id="path2012"
             style="fill:none;stroke:#000000;stroke-width:1;stroke-linecap:butt;stroke-linejoin:miter;stroke-miterlimit:10;stroke-dasharray:none;stroke-opacity:0"
             d="m 0,0 c 60,108 97,116 101,120 4,-4 -69,-5 3,-23 -55,-2 -6,0 11,4 C 54,52 61,34 87,108 99,89 99,55 85,88 69,118 117,77 107,52 80,113 88,47 68,87 116,53 75,47 50,55 107,61 34,62 65,65 65,66 43,51 105,99 98,86 68,76 83,115 78,65 70,74 51,85 86,54 50,118 87,74 c 13,43 -21,37 31,29 -7,9 -36,-34 -51,13 30,-46 18,-44 1,-10 47,5 44,-49 13,-40 37,1 9,2 -7,46 46,-64 -21,-3 45,3 C 120,69 76,75 87,47 52,115 97,70 73,109 55,57 69,88 102,43 c 4,47 -25,7 -35,7 -19,7 32,29 3,69 52,-5 -19,-20 31,-71 -58,33 -24,27 12,0 -61,3 7,50 -9,50 -16,-49 2,1 -54,18 2,-6 40,-4 40,-65 10,67 -43,5 -25,-8 11,29 36,42 18,24 2,42 15,16 38,22 C 107,76 48,65 75,99 73,111 74,50 49,78 78,83 79,57 82,66 73,85 66,52 120,48 c -17,-1 -50,1 -67,62 46,-8 52,-24 29,-25 -26,-13 33,-28 1,4 20,-1 28,32 -12,21 -2,-11 15,-37 0,-54 38,-5 50,63 -24,63 20,-5 67,-33 18,-38 52,-11 21,27 21,-29 -33,5 -7,31 12,-3 3,50 11,57 -21,23 11,-5 9,45 7,33 27,-2 -2,-49 33,-54 1,68 -20,53 2,20 -11,6 -2,6 -30,6 -14,23 -3,-26 21,8 -28,-30 -25,36 -29,-36 39,40 41,28 2,62 -5,-26 24,-30 1,-7 -7,-22 29,-21 34,9 -49,-14 2,-28 -36,-60 -34,-6 28,63 -5,-2 27,62 31,15 -11,20 15,41 48,34 5,44 -16,-29 -20,5 7,-31 -8,-17 37,-35 27,-3 -25,3 -34,2 -28,-24 8,58 39,44 -3,61 -19,-8 -17,-32 3,-18 1,-2 42,12 -24,-15 56,28 14,14 48,-9 -19,10 -29,-1 10,-10 -22,53 -44,53 -36,5 11,-5 0,44 -25,28 31,-18 54,-32 35,-50 31,-1 -12,7 -4,55 -7,0 17,-3 -5,-29 5,35 -9,13 12,-26 -36,59 22,53 -9,48 8,-43 -22,3 -28,19 38,-2 71,-31 38,-15 -7,19 -20,-2 14,19 -25,-1 -37,-12 17,-1 -55,-29 -6,-16 -54,-5 16,-49 5,-64 2,5 C 66,74 55,66 75,51 105,122 90,116 97,76 57,87 53,57 76,70 111,76 86,106 53,122 66,80 55,65 43,118 119,66 76,50 79,83 108,119 61,61 60,47 c 48,50 56,54 60,58 C 116,62 0,0 0,0 Z" />
        </g>
      </g>
    </g>
  </g>
</svg>
